<?xml version="1.0" encoding="UTF-8" standalone="no"?>
<svg
   xmlns:dc="http://purl.org/dc/elements/1.1/"
   xmlns:cc="http://creativecommons.org/ns#"
   xmlns:rdf="http://www.w3.org/1999/02/22-rdf-syntax-ns#"
   xmlns:svg="http://www.w3.org/2000/svg"
   xmlns="http://www.w3.org/2000/svg"
   xmlns:sodipodi="http://sodipodi.sourceforge.net/DTD/sodipodi-0.dtd"
   xmlns:inkscape="http://www.inkscape.org/namespaces/inkscape"
   version="1.1"
   width="646.37128"
   height="646.37128"
   id="svg81"
   sodipodi:docname="butterfly.svg"
   inkscape:version="0.92.4 5da689c313, 2019-01-14">
  <metadata
     id="metadata85">
    <rdf:RDF>
      <cc:Work
         rdf:about="">
        <dc:format>image/svg+xml</dc:format>
        <dc:type
           rdf:resource="http://purl.org/dc/dcmitype/StillImage" />
        <dc:title></dc:title>
      </cc:Work>
    </rdf:RDF>
  </metadata>
  <sodipodi:namedview
     pagecolor="#ffffff"
     bordercolor="#666666"
     borderopacity="1"
     objecttolerance="10"
     gridtolerance="10"
     guidetolerance="10"
     inkscape:pageopacity="0"
     inkscape:pageshadow="2"
     inkscape:window-width="1280"
     inkscape:window-height="1560"
     id="namedview83"
     showgrid="false"
     inkscape:zoom="0.67698661"
     inkscape:cx="314.18253"
     inkscape:cy="572.79909"
     inkscape:window-x="0"
     inkscape:window-y="40"
     inkscape:window-maximized="0"
     inkscape:current-layer="svg81" />
  <defs
     id="defs5">
    <clipPath
       id="PzykRwXRTpUD">
      <path
         d="M 0,0 H 908 V 986 H 0 Z"
         id="path2"
         inkscape:connector-curvature="0"
         style="fill:none;stroke:none" />
    </clipPath>
  </defs>
  <g
     id="g192"
     transform="translate(-124.29593,-97.237312)">
    <path
       style="fill:none;stroke:#000000;stroke-width:2.5;stroke-linecap:round;stroke-linejoin:round;stroke-miterlimit:10;stroke-opacity:0.69803922;paint-order:fill stroke markers"
       inkscape:connector-curvature="0"
       id="path9"
       stroke-miterlimit="10"
       d="m 769.41718,420.42294 c 0,177.80013 -144.13549,321.93562 -321.93562,321.93562 -177.80014,0 -321.93563,-144.13549 -321.93563,-321.93562 0,-177.80014 144.13549,-321.935628 321.93563,-321.935628 177.80013,0 321.93562,144.135488 321.93562,321.935628 z" />
    <path
       style="fill:none;stroke:#000000;stroke-width:2.5;stroke-linecap:round;stroke-linejoin:round;stroke-miterlimit:10;stroke-opacity:0.69803922;paint-order:fill stroke markers"
       inkscape:connector-curvature="0"
       id="path11"
       stroke-miterlimit="10"
       d="M 168.67713,581.39075 H 726.28599" />
    <path
       style="fill:none;stroke:#000000;stroke-width:2.5;stroke-linecap:round;stroke-linejoin:round;stroke-miterlimit:10;stroke-opacity:0.69803922;paint-order:fill stroke markers"
       inkscape:connector-curvature="0"
       id="path13"
       stroke-miterlimit="10"
       d="M 160.69608,274.14704 349.59541,727.11635" />
    <path
       style="fill:none;stroke:#000000;stroke-width:2.5;stroke-linecap:round;stroke-linejoin:round;stroke-miterlimit:10;stroke-opacity:0.69803922;paint-order:fill stroke markers"
       inkscape:connector-curvature="0"
       id="path15"
       stroke-miterlimit="10"
       d="M 694.38155,213.82444 573.68061,716.59239" />
    <path
       style="fill:none;stroke:#000000;stroke-width:2.5;stroke-linecap:round;stroke-linejoin:round;stroke-miterlimit:10;stroke-opacity:0.69803922;paint-order:fill stroke markers"
       inkscape:connector-curvature="0"
       id="path17"
       stroke-miterlimit="10"
       d="M 160.69608,274.14704 573.68061,716.59239" />
    <path
       style="fill:none;stroke:#000000;stroke-width:2.5;stroke-linecap:round;stroke-linejoin:round;stroke-miterlimit:10;stroke-opacity:0.69803922;paint-order:fill stroke markers"
       inkscape:connector-curvature="0"
       id="path19"
       stroke-miterlimit="10"
       d="M 694.38155,213.82444 349.59541,727.11635" />
    <path
       style="fill:none;stroke:#000000;stroke-width:2.5;stroke-linejoin:round;stroke-miterlimit:10;stroke-dasharray:2.5, 3;stroke-opacity:0.69803922;paint-order:fill stroke markers"
       inkscape:connector-curvature="0"
       id="path21"
       stroke-miterlimit="10"
       d="M 255.14575,500.63169 447.48156,420.42294" />
    <path
       style="fill:none;stroke:#000000;stroke-width:2.5;stroke-linejoin:round;stroke-miterlimit:10;stroke-dasharray:2.5, 3;stroke-opacity:0.69803922;paint-order:fill stroke markers"
       inkscape:connector-curvature="0"
       id="path23"
       stroke-miterlimit="10"
       d="m 447.48156,420.42294 186.54952,44.78547" />
    <path
       style="fill:none;stroke:#000000;stroke-width:2.5;stroke-linejoin:round;stroke-miterlimit:10;stroke-dasharray:2.5, 3;stroke-opacity:0.69803922;paint-order:fill stroke markers"
       inkscape:connector-curvature="0"
       id="path25"
       stroke-miterlimit="10"
       d="M 447.48156,420.42294 V 581.39075" />
    <path
       style="fill:none;stroke:#000000;stroke-width:2.5;stroke-linejoin:round;stroke-miterlimit:10;stroke-dasharray:2.5, 3;stroke-opacity:0.69803922;paint-order:fill stroke markers"
       inkscape:connector-curvature="0"
       id="path27"
       stroke-miterlimit="10"
       d="m 255.14575,500.63169 192.33581,80.75906" />
    <path
       style="fill:none;stroke:#000000;stroke-width:2.5;stroke-linejoin:round;stroke-miterlimit:10;stroke-dasharray:2.5, 3;stroke-opacity:0.69803922;paint-order:fill stroke markers"
       inkscape:connector-curvature="0"
       id="path29"
       stroke-miterlimit="10"
       d="M 447.48156,581.39075 634.03108,465.20841" />
    <path
       style="fill:none;stroke:#000000;stroke-width:2.5;stroke-linejoin:round;stroke-miterlimit:10;stroke-dasharray:2.5, 3;stroke-opacity:0.69803922;paint-order:fill stroke markers"
       inkscape:connector-curvature="0"
       id="path31"
       stroke-miterlimit="10"
       d="M 288.82426,581.39075 447.48156,420.42294" />
    <path
       style="fill:none;stroke:#000000;stroke-width:2.5;stroke-linejoin:round;stroke-miterlimit:10;stroke-dasharray:2.5, 3;stroke-opacity:0.69803922;paint-order:fill stroke markers"
       inkscape:connector-curvature="0"
       id="path33"
       stroke-miterlimit="10"
       d="M 447.48156,420.42294 606.13885,581.39075" />
    <path
       style="fill:#7d7dff;fill-opacity:1;stroke:none;paint-order:stroke fill markers"
       inkscape:connector-curvature="0"
       id="path35"
       d="m 452.48156,420.42294 c 0,2.76142 -2.23858,5 -5,5 -2.76143,0 -5,-2.23858 -5,-5 0,-2.76143 2.23857,-5 5,-5 2.76142,0 5,2.23857 5,5 z" />
    <path
       style="fill:none;stroke:#000000;stroke-linecap:round;stroke-linejoin:round;stroke-miterlimit:10;stroke-opacity:1;paint-order:fill stroke markers"
       inkscape:connector-curvature="0"
       id="path37"
       stroke-miterlimit="10"
       d="m 452.48156,420.42294 c 0,2.76142 -2.23858,5 -5,5 -2.76143,0 -5,-2.23858 -5,-5 0,-2.76143 2.23857,-5 5,-5 2.76142,0 5,2.23857 5,5 z" />
    <path
       style="fill:#444444;fill-opacity:1;stroke:none;paint-order:stroke fill markers"
       inkscape:connector-curvature="0"
       id="path39"
       d="m 450.48156,581.39075 c 0,1.65685 -1.34315,3 -3,3 -1.65686,0 -3,-1.34315 -3,-3 0,-1.65685 1.34314,-3 3,-3 1.65685,0 3,1.34315 3,3 z" />
    <path
       style="fill:none;stroke:#000000;stroke-linecap:round;stroke-linejoin:round;stroke-miterlimit:10;stroke-opacity:1;paint-order:fill stroke markers"
       inkscape:connector-curvature="0"
       id="path41"
       stroke-miterlimit="10"
       d="m 450.48156,581.39075 c 0,1.65685 -1.34315,3 -3,3 -1.65686,0 -3,-1.34315 -3,-3 0,-1.65685 1.34314,-3 3,-3 1.65685,0 3,1.34315 3,3 z" />
    <text
       style="font-style:normal;font-weight:normal;font-size:28px;font-family:geogebra-sans-serif, sans-serif;dominant-baseline:alphabetic;text-anchor:start;fill:#444444;fill-opacity:1;stroke:none"
       id="text43"
       dominant-baseline="alphabetic"
       y="615"
       x="439"
       text-decoration="normal"
       font-weight="normal"
       font-style="normal"
       font-size="28px">A</text>
    <text
       style="font-style:normal;font-weight:normal;font-size:28px;font-family:geogebra-sans-serif, sans-serif;dominant-baseline:alphabetic;text-anchor:start;fill:none;stroke:#ffffff;stroke-width:3;stroke-linecap:round;stroke-linejoin:bevel;stroke-miterlimit:10;stroke-opacity:1"
       id="text45"
       stroke-miterlimit="10"
       dominant-baseline="alphabetic"
       y="615"
       x="439"
       text-decoration="normal"
       font-weight="normal"
       font-style="normal"
       font-size="28px">A</text>
    <text
       style="font-style:normal;font-weight:normal;font-size:28px;font-family:geogebra-sans-serif, sans-serif;dominant-baseline:alphabetic;text-anchor:start;fill:#444444;fill-opacity:1;stroke:none"
       id="text47"
       dominant-baseline="alphabetic"
       y="615"
       x="439"
       text-decoration="normal"
       font-weight="normal"
       font-style="normal"
       font-size="28px">A</text>
    <path
       style="fill:#444444;fill-opacity:1;stroke:none;paint-order:stroke fill markers"
       inkscape:connector-curvature="0"
       id="path49"
       d="m 291.82426,581.39075 c 0,1.65685 -1.34315,3 -3,3 -1.65686,0 -3,-1.34315 -3,-3 0,-1.65685 1.34314,-3 3,-3 1.65685,0 3,1.34315 3,3 z" />
    <path
       style="fill:none;stroke:#000000;stroke-linecap:round;stroke-linejoin:round;stroke-miterlimit:10;stroke-opacity:1;paint-order:fill stroke markers"
       inkscape:connector-curvature="0"
       id="path51"
       stroke-miterlimit="10"
       d="m 291.82426,581.39075 c 0,1.65685 -1.34315,3 -3,3 -1.65686,0 -3,-1.34315 -3,-3 0,-1.65685 1.34314,-3 3,-3 1.65685,0 3,1.34315 3,3 z" />
    <text
       style="font-style:normal;font-weight:normal;font-size:28px;font-family:geogebra-sans-serif, sans-serif;dominant-baseline:alphabetic;text-anchor:start;fill:#444444;fill-opacity:1;stroke:none"
       id="text53"
       dominant-baseline="alphabetic"
       y="612"
       x="266"
       text-decoration="normal"
       font-weight="normal"
       font-style="normal"
       font-size="28px">C</text>
    <text
       style="font-style:normal;font-weight:normal;font-size:28px;font-family:geogebra-sans-serif, sans-serif;dominant-baseline:alphabetic;text-anchor:start;fill:none;stroke:#ffffff;stroke-width:3;stroke-linecap:round;stroke-linejoin:bevel;stroke-miterlimit:10;stroke-opacity:1"
       id="text55"
       stroke-miterlimit="10"
       dominant-baseline="alphabetic"
       y="612"
       x="266"
       text-decoration="normal"
       font-weight="normal"
       font-style="normal"
       font-size="28px">C</text>
    <text
       style="font-style:normal;font-weight:normal;font-size:28px;font-family:geogebra-sans-serif, sans-serif;dominant-baseline:alphabetic;text-anchor:start;fill:#444444;fill-opacity:1;stroke:none"
       id="text57"
       dominant-baseline="alphabetic"
       y="612"
       x="266"
       text-decoration="normal"
       font-weight="normal"
       font-style="normal"
       font-size="28px">C</text>
    <path
       style="fill:#444444;fill-opacity:1;stroke:none;paint-order:stroke fill markers"
       inkscape:connector-curvature="0"
       id="path59"
       d="m 609.13885,581.39075 c 0,1.65685 -1.34314,3 -3,3 -1.65685,0 -3,-1.34315 -3,-3 0,-1.65685 1.34315,-3 3,-3 1.65686,0 3,1.34315 3,3 z" />
    <path
       style="fill:none;stroke:#000000;stroke-linecap:round;stroke-linejoin:round;stroke-miterlimit:10;stroke-opacity:1;paint-order:fill stroke markers"
       inkscape:connector-curvature="0"
       id="path61"
       stroke-miterlimit="10"
       d="m 609.13885,581.39075 c 0,1.65685 -1.34314,3 -3,3 -1.65685,0 -3,-1.34315 -3,-3 0,-1.65685 1.34315,-3 3,-3 1.65686,0 3,1.34315 3,3 z" />
    <text
       style="font-style:normal;font-weight:normal;font-size:28px;font-family:geogebra-sans-serif, sans-serif;dominant-baseline:alphabetic;text-anchor:start;fill:#444444;fill-opacity:1;stroke:none"
       id="text63"
       dominant-baseline="alphabetic"
       y="608"
       x="614"
       text-decoration="normal"
       font-weight="normal"
       font-style="normal"
       font-size="28px">B</text>
    <text
       style="font-style:normal;font-weight:normal;font-size:28px;font-family:geogebra-sans-serif, sans-serif;dominant-baseline:alphabetic;text-anchor:start;fill:none;stroke:#ffffff;stroke-width:3;stroke-linecap:round;stroke-linejoin:bevel;stroke-miterlimit:10;stroke-opacity:1"
       id="text65"
       stroke-miterlimit="10"
       dominant-baseline="alphabetic"
       y="608"
       x="614"
       text-decoration="normal"
       font-weight="normal"
       font-style="normal"
       font-size="28px">B</text>
    <text
       style="font-style:normal;font-weight:normal;font-size:28px;font-family:geogebra-sans-serif, sans-serif;dominant-baseline:alphabetic;text-anchor:start;fill:#444444;fill-opacity:1;stroke:none"
       id="text67"
       dominant-baseline="alphabetic"
       y="608"
       x="614"
       text-decoration="normal"
       font-weight="normal"
       font-style="normal"
       font-size="28px">B</text>
    <path
       style="fill:#444444;fill-opacity:1;stroke:none;paint-order:stroke fill markers"
       inkscape:connector-curvature="0"
       id="path69"
       d="m 259.14575,500.63169 c 0,2.20914 -1.79086,4 -4,4 -2.20914,0 -4,-1.79086 -4,-4 0,-2.20914 1.79086,-4 4,-4 2.20914,0 4,1.79086 4,4 z" />
    <path
       style="fill:none;stroke:#000000;stroke-linecap:round;stroke-linejoin:round;stroke-miterlimit:10;stroke-opacity:1;paint-order:fill stroke markers"
       inkscape:connector-curvature="0"
       id="path71"
       stroke-miterlimit="10"
       d="m 259.14575,500.63169 c 0,2.20914 -1.79086,4 -4,4 -2.20914,0 -4,-1.79086 -4,-4 0,-2.20914 1.79086,-4 4,-4 2.20914,0 4,1.79086 4,4 z" />
    <path
       style="fill:#444444;fill-opacity:1;stroke:none;paint-order:stroke fill markers"
       inkscape:connector-curvature="0"
       id="path73"
       d="m 638.03108,465.20841 c 0,2.20914 -1.79086,4 -4,4 -2.20914,0 -4,-1.79086 -4,-4 0,-2.20914 1.79086,-4 4,-4 2.20914,0 4,1.79086 4,4 z" />
    <path
       style="fill:none;stroke:#000000;stroke-linecap:round;stroke-linejoin:round;stroke-miterlimit:10;stroke-opacity:1;paint-order:fill stroke markers"
       inkscape:connector-curvature="0"
       id="path75"
       stroke-miterlimit="10"
       d="m 638.03108,465.20841 c 0,2.20914 -1.79086,4 -4,4 -2.20914,0 -4,-1.79086 -4,-4 0,-2.20914 1.79086,-4 4,-4 2.20914,0 4,1.79086 4,4 z" />
  </g>
</svg>
