<?xml version="1.0" encoding="UTF-8" standalone="no"?>
<svg
   height="298.80386pt"
   version="1.1"
   viewBox="0 0 401.23844 298.80386"
   width="401.23843pt"
   id="svg430"
   sodipodi:docname="lcs.svg"
   inkscape:version="1.1.1 (3bf5ae0d25, 2021-09-20, custom)"
   xmlns:inkscape="http://www.inkscape.org/namespaces/inkscape"
   xmlns:sodipodi="http://sodipodi.sourceforge.net/DTD/sodipodi-0.dtd"
   xmlns:xlink="http://www.w3.org/1999/xlink"
   xmlns="http://www.w3.org/2000/svg"
   xmlns:svg="http://www.w3.org/2000/svg"
   xmlns:rdf="http://www.w3.org/1999/02/22-rdf-syntax-ns#"
   xmlns:cc="http://creativecommons.org/ns#"
   xmlns:dc="http://purl.org/dc/elements/1.1/">
  <sodipodi:namedview
     id="namedview432"
     pagecolor="#ffffff"
     bordercolor="#666666"
     borderopacity="1.0"
     inkscape:pageshadow="2"
     inkscape:pageopacity="0.0"
     inkscape:pagecheckerboard="0"
     inkscape:document-units="pt"
     showgrid="false"
     inkscape:zoom="1.8945312"
     inkscape:cx="288.46186"
     inkscape:cy="175.24124"
     inkscape:window-width="3840"
     inkscape:window-height="2106"
     inkscape:window-x="0"
     inkscape:window-y="54"
     inkscape:window-maximized="1"
     inkscape:current-layer="svg430" />
  <metadata
     id="metadata2">
    <rdf:RDF>
      <cc:Work>
        <dc:type
           rdf:resource="http://purl.org/dc/dcmitype/StillImage" />
        <dc:date>2021-11-12T05:07:56.271136</dc:date>
        <dc:format>image/svg+xml</dc:format>
        <dc:creator>
          <cc:Agent>
            <dc:title>Matplotlib v3.4.3, https://matplotlib.org/</dc:title>
          </cc:Agent>
        </dc:creator>
      </cc:Work>
    </rdf:RDF>
  </metadata>
  <defs
     id="defs6">
    <style
       type="text/css"
       id="style4">*{stroke-linecap:butt;stroke-linejoin:round;}</style>
  </defs>
  <g
     id="patch_1"
     transform="translate(-13.881563,-41.072)">
    <path
       d="M 0,345.6 H 460.8 V 0 H 0 Z"
       style="fill:none"
       id="path8" />
  </g>
  <g
     id="g958"
     transform="translate(-13.881563,-41.072)">
    <g
       id="axes_1">
      <g
         id="patch_2">
        <path
           d="M 57.6,307.584 H 414.72 V 41.472 H 57.6 Z"
           style="fill:none"
           id="path11" />
      </g>
      <g
         id="matplotlib.axis_1">
        <g
           id="xtick_1">
          <g
             id="line2d_1">
            <path
               clip-path="url(#p58947f765a)"
               d="M 73.832727,307.584 V 41.472"
               style="fill:none;stroke:#93a1a1;stroke-width:0.7;stroke-dasharray:4.48, 1.12, 0.7, 1.12;stroke-dashoffset:0"
               id="path14" />
          </g>
          <g
             id="line2d_2">
            <defs
               id="defs18">
              <path
                 d="M 0,0 V 3.5"
                 id="m44c7fd58a0"
                 style="stroke:#657b83;stroke-width:0.8" />
            </defs>
            <g
               id="g22">
              <use
                 style="fill:#657b83;stroke:#657b83;stroke-width:0.8"
                 x="73.832726"
                 xlink:href="#m44c7fd58a0"
                 y="307.58401"
                 id="use20"
                 width="100%"
                 height="100%" />
            </g>
          </g>
          <g
             id="text_1">
            <!-- 8 -->
            <g
               style="fill:#657b83"
               transform="matrix(0.1,0,0,-0.1,70.651477,322.18244)"
               id="g30">
              <defs
                 id="defs26">
                <path
                   d="m 2034,2216 q -450,0 -708,-241 -257,-241 -257,-662 0,-422 257,-663 258,-241 708,-241 450,0 709,242 260,243 260,662 0,421 -258,662 -257,241 -711,241 z m -631,268 q -406,100 -633,378 -226,279 -226,679 0,559 398,884 399,325 1092,325 697,0 1094,-325 397,-325 397,-884 0,-400 -227,-679 -226,-278 -629,-378 456,-106 710,-416 255,-309 255,-755 Q 3634,634 3220,271 2806,-91 2034,-91 1263,-91 848,271 434,634 434,1313 q 0,446 256,755 257,310 713,416 z m -231,997 q 0,-362 226,-565 227,-203 636,-203 407,0 636,203 230,203 230,565 0,363 -230,566 -229,203 -636,203 -409,0 -636,-203 -226,-203 -226,-566 z"
                   id="DejaVuSans-38"
                   transform="scale(0.015625)" />
              </defs>
              <use
                 xlink:href="#DejaVuSans-38"
                 id="use28"
                 x="0"
                 y="0"
                 width="100%"
                 height="100%" />
            </g>
          </g>
        </g>
        <g
           id="xtick_2">
          <g
             id="line2d_3">
            <path
               clip-path="url(#p58947f765a)"
               d="M 120.21195,307.584 V 41.472"
               style="fill:none;stroke:#93a1a1;stroke-width:0.7;stroke-dasharray:4.48, 1.12, 0.7, 1.12;stroke-dashoffset:0"
               id="path34" />
          </g>
          <g
             id="line2d_4">
            <g
               id="g39">
              <use
                 style="fill:#657b83;stroke:#657b83;stroke-width:0.8"
                 x="120.21194"
                 xlink:href="#m44c7fd58a0"
                 y="307.58401"
                 id="use37"
                 width="100%"
                 height="100%" />
            </g>
          </g>
          <g
             id="text_2">
            <!-- 9 -->
            <g
               style="fill:#657b83"
               transform="matrix(0.1,0,0,-0.1,117.0307,322.18244)"
               id="g47">
              <defs
                 id="defs43">
                <path
                   d="m 703,97 v 575 q 238,-113 481,-172 244,-59 479,-59 625,0 954,420 330,420 377,1277 -181,-269 -460,-413 -278,-144 -615,-144 -700,0 -1108,423 -408,424 -408,1159 0,718 425,1152 425,435 1131,435 810,0 1236,-621 427,-620 427,-1801 Q 3622,1225 3098,567 2575,-91 1691,-91 1453,-91 1209,-44 966,3 703,97 Z m 1256,1978 q 425,0 673,290 249,291 249,798 0,503 -249,795 -248,292 -673,292 -425,0 -673,-292 -248,-292 -248,-795 0,-507 248,-798 248,-290 673,-290 z"
                   id="DejaVuSans-39"
                   transform="scale(0.015625)" />
              </defs>
              <use
                 xlink:href="#DejaVuSans-39"
                 id="use45"
                 x="0"
                 y="0"
                 width="100%"
                 height="100%" />
            </g>
          </g>
        </g>
        <g
           id="xtick_3">
          <g
             id="line2d_5">
            <path
               clip-path="url(#p58947f765a)"
               d="M 166.59117,307.584 V 41.472"
               style="fill:none;stroke:#93a1a1;stroke-width:0.7;stroke-dasharray:4.48, 1.12, 0.7, 1.12;stroke-dashoffset:0"
               id="path51" />
          </g>
          <g
             id="line2d_6">
            <g
               id="g56">
              <use
                 style="fill:#657b83;stroke:#657b83;stroke-width:0.8"
                 x="166.59117"
                 xlink:href="#m44c7fd58a0"
                 y="307.58401"
                 id="use54"
                 width="100%"
                 height="100%" />
            </g>
          </g>
          <g
             id="text_3">
            <!-- 10 -->
            <g
               style="fill:#657b83"
               transform="matrix(0.1,0,0,-0.1,160.22867,322.18244)"
               id="g67">
              <defs
                 id="defs61">
                <path
                   d="M 794,531 H 1825 V 4091 L 703,3866 v 575 l 1116,225 h 631 V 531 H 3481 V 0 H 794 Z"
                   id="DejaVuSans-31"
                   transform="scale(0.015625)" />
                <path
                   d="m 2034,4250 q -487,0 -733,-480 -245,-479 -245,-1442 0,-959 245,-1439 246,-480 733,-480 491,0 736,480 246,480 246,1439 0,963 -246,1442 -245,480 -736,480 z m 0,500 q 785,0 1199,-621 414,-620 414,-1801 0,-1178 -414,-1799 -414,-620 -1199,-620 -784,0 -1198,620 -414,621 -414,1799 0,1181 414,1801 414,621 1198,621 z"
                   id="DejaVuSans-30"
                   transform="scale(0.015625)" />
              </defs>
              <use
                 xlink:href="#DejaVuSans-31"
                 id="use63"
                 x="0"
                 y="0"
                 width="100%"
                 height="100%" />
              <use
                 x="63.623047"
                 xlink:href="#DejaVuSans-30"
                 id="use65"
                 y="0"
                 width="100%"
                 height="100%" />
            </g>
          </g>
        </g>
        <g
           id="xtick_4">
          <g
             id="line2d_7">
            <path
               clip-path="url(#p58947f765a)"
               d="M 212.97039,307.584 V 41.472"
               style="fill:none;stroke:#93a1a1;stroke-width:0.7;stroke-dasharray:4.48, 1.12, 0.7, 1.12;stroke-dashoffset:0"
               id="path71" />
          </g>
          <g
             id="line2d_8">
            <g
               id="g76">
              <use
                 style="fill:#657b83;stroke:#657b83;stroke-width:0.8"
                 x="212.97038"
                 xlink:href="#m44c7fd58a0"
                 y="307.58401"
                 id="use74"
                 width="100%"
                 height="100%" />
            </g>
          </g>
          <g
             id="text_4">
            <!-- 11 -->
            <g
               style="fill:#657b83"
               transform="matrix(0.1,0,0,-0.1,206.60789,322.18244)"
               id="g83">
              <use
                 xlink:href="#DejaVuSans-31"
                 id="use79"
                 x="0"
                 y="0"
                 width="100%"
                 height="100%" />
              <use
                 x="63.623047"
                 xlink:href="#DejaVuSans-31"
                 id="use81"
                 y="0"
                 width="100%"
                 height="100%" />
            </g>
          </g>
        </g>
        <g
           id="xtick_5">
          <g
             id="line2d_9">
            <path
               clip-path="url(#p58947f765a)"
               d="M 259.34961,307.584 V 41.472"
               style="fill:none;stroke:#93a1a1;stroke-width:0.7;stroke-dasharray:4.48, 1.12, 0.7, 1.12;stroke-dashoffset:0"
               id="path87" />
          </g>
          <g
             id="line2d_10">
            <g
               id="g92">
              <use
                 style="fill:#657b83;stroke:#657b83;stroke-width:0.8"
                 x="259.34961"
                 xlink:href="#m44c7fd58a0"
                 y="307.58401"
                 id="use90"
                 width="100%"
                 height="100%" />
            </g>
          </g>
          <g
             id="text_5">
            <!-- 12 -->
            <g
               style="fill:#657b83"
               transform="matrix(0.1,0,0,-0.1,252.98711,322.18244)"
               id="g102">
              <defs
                 id="defs96">
                <path
                   d="M 1228,531 H 3431 V 0 H 469 v 531 q 359,372 979,998 621,627 780,809 303,340 423,576 121,236 121,464 0,372 -261,606 -261,235 -680,235 -297,0 -627,-103 -329,-103 -704,-313 v 638 q 381,153 712,231 332,78 607,78 725,0 1156,-363 431,-362 431,-968 0,-288 -108,-546 -107,-257 -392,-607 -78,-91 -497,-524 Q 1991,1309 1228,531 Z"
                   id="DejaVuSans-32"
                   transform="scale(0.015625)" />
              </defs>
              <use
                 xlink:href="#DejaVuSans-31"
                 id="use98"
                 x="0"
                 y="0"
                 width="100%"
                 height="100%" />
              <use
                 x="63.623047"
                 xlink:href="#DejaVuSans-32"
                 id="use100"
                 y="0"
                 width="100%"
                 height="100%" />
            </g>
          </g>
        </g>
        <g
           id="xtick_6">
          <g
             id="line2d_11">
            <path
               clip-path="url(#p58947f765a)"
               d="M 305.72883,307.584 V 41.472"
               style="fill:none;stroke:#93a1a1;stroke-width:0.7;stroke-dasharray:4.48, 1.12, 0.7, 1.12;stroke-dashoffset:0"
               id="path106" />
          </g>
          <g
             id="line2d_12">
            <g
               id="g111">
              <use
                 style="fill:#657b83;stroke:#657b83;stroke-width:0.8"
                 x="305.72882"
                 xlink:href="#m44c7fd58a0"
                 y="307.58401"
                 id="use109"
                 width="100%"
                 height="100%" />
            </g>
          </g>
          <g
             id="text_6">
            <!-- 13 -->
            <g
               style="fill:#657b83"
               transform="matrix(0.1,0,0,-0.1,299.36633,322.18244)"
               id="g121">
              <defs
                 id="defs115">
                <path
                   d="m 2597,2516 q 453,-97 707,-404 255,-306 255,-756 0,-690 -475,-1069 -475,-378 -1350,-378 -293,0 -604,58 -311,58 -642,174 v 609 q 262,-153 574,-231 313,-78 654,-78 593,0 904,234 311,234 311,681 0,413 -289,645 -289,233 -804,233 h -544 v 519 h 569 q 465,0 712,186 247,186 247,536 0,359 -255,551 -254,193 -729,193 -260,0 -557,-57 -297,-56 -653,-174 v 562 q 360,100 674,150 314,50 592,50 719,0 1137,-327 419,-326 419,-882 0,-388 -222,-655 -222,-267 -631,-370 z"
                   id="DejaVuSans-33"
                   transform="scale(0.015625)" />
              </defs>
              <use
                 xlink:href="#DejaVuSans-31"
                 id="use117"
                 x="0"
                 y="0"
                 width="100%"
                 height="100%" />
              <use
                 x="63.623047"
                 xlink:href="#DejaVuSans-33"
                 id="use119"
                 y="0"
                 width="100%"
                 height="100%" />
            </g>
          </g>
        </g>
        <g
           id="xtick_7">
          <g
             id="line2d_13">
            <path
               clip-path="url(#p58947f765a)"
               d="M 352.10805,307.584 V 41.472"
               style="fill:none;stroke:#93a1a1;stroke-width:0.7;stroke-dasharray:4.48, 1.12, 0.7, 1.12;stroke-dashoffset:0"
               id="path125" />
          </g>
          <g
             id="line2d_14">
            <g
               id="g130">
              <use
                 style="fill:#657b83;stroke:#657b83;stroke-width:0.8"
                 x="352.10806"
                 xlink:href="#m44c7fd58a0"
                 y="307.58401"
                 id="use128"
                 width="100%"
                 height="100%" />
            </g>
          </g>
          <g
             id="text_7">
            <!-- 14 -->
            <g
               style="fill:#657b83"
               transform="matrix(0.1,0,0,-0.1,345.74555,322.18244)"
               id="g140">
              <defs
                 id="defs134">
                <path
                   d="M 2419,4116 825,1625 h 1594 z m -166,550 h 794 V 1625 h 666 V 1100 H 3047 V 0 H 2419 V 1100 H 313 v 609 z"
                   id="DejaVuSans-34"
                   transform="scale(0.015625)" />
              </defs>
              <use
                 xlink:href="#DejaVuSans-31"
                 id="use136"
                 x="0"
                 y="0"
                 width="100%"
                 height="100%" />
              <use
                 x="63.623047"
                 xlink:href="#DejaVuSans-34"
                 id="use138"
                 y="0"
                 width="100%"
                 height="100%" />
            </g>
          </g>
        </g>
        <g
           id="xtick_8">
          <g
             id="line2d_15">
            <path
               clip-path="url(#p58947f765a)"
               d="M 398.48727,307.584 V 41.472"
               style="fill:none;stroke:#93a1a1;stroke-width:0.7;stroke-dasharray:4.48, 1.12, 0.7, 1.12;stroke-dashoffset:0"
               id="path144" />
          </g>
          <g
             id="line2d_16">
            <g
               id="g149">
              <use
                 style="fill:#657b83;stroke:#657b83;stroke-width:0.8"
                 x="398.48727"
                 xlink:href="#m44c7fd58a0"
                 y="307.58401"
                 id="use147"
                 width="100%"
                 height="100%" />
            </g>
          </g>
          <g
             id="text_8">
            <!-- 15 -->
            <g
               style="fill:#657b83"
               transform="matrix(0.1,0,0,-0.1,392.12477,322.18244)"
               id="g159">
              <defs
                 id="defs153">
                <path
                   d="M 691,4666 H 3169 V 4134 H 1269 V 2991 q 137,47 274,70 138,23 276,23 781,0 1237,-428 457,-428 457,-1159 Q 3513,744 3044,326 2575,-91 1722,-91 1428,-91 1123,-41 819,9 494,109 v 635 q 281,-153 581,-228 300,-75 634,-75 541,0 856,284 316,284 316,772 0,487 -316,771 -315,285 -856,285 -253,0 -505,-56 -251,-56 -513,-175 z"
                   id="DejaVuSans-35"
                   transform="scale(0.015625)" />
              </defs>
              <use
                 xlink:href="#DejaVuSans-31"
                 id="use155"
                 x="0"
                 y="0"
                 width="100%"
                 height="100%" />
              <use
                 x="63.623047"
                 xlink:href="#DejaVuSans-35"
                 id="use157"
                 y="0"
                 width="100%"
                 height="100%" />
            </g>
          </g>
        </g>
        <g
           id="text_9">
          <!-- n: power of 2 -->
          <g
             style="fill:#657b83"
             transform="matrix(0.12,0,0,-0.12,196.46906,337.38025)"
             id="g200">
            <defs
               id="defs172">
              <path
                 d="M 3513,2113 V 0 h -575 v 2094 q 0,497 -194,743 -194,247 -581,247 -466,0 -735,-297 -269,-296 -269,-809 V 0 H 581 v 3500 h 578 v -544 q 207,316 486,472 280,156 646,156 603,0 912,-373 310,-373 310,-1098 z"
                 id="DejaVuSans-6e"
                 transform="scale(0.015625)" />
              <path
                 d="m 750,794 h 659 V 0 H 750 Z m 0,2515 h 659 V 2516 H 750 Z"
                 id="DejaVuSans-3a"
                 transform="scale(0.015625)" />
              <path
                 id="DejaVuSans-20"
                 transform="scale(0.015625)"
                 d="" />
              <path
                 d="M 1159,525 V -1331 H 581 v 4831 h 578 v -531 q 182,312 458,463 277,152 661,152 638,0 1036,-506 399,-506 399,-1331 0,-825 -399,-1332 -398,-506 -1036,-506 -384,0 -661,152 -276,152 -458,464 z m 1957,1222 q 0,634 -261,995 -261,361 -717,361 -457,0 -718,-361 -261,-361 -261,-995 0,-634 261,-995 261,-361 718,-361 456,0 717,361 261,361 261,995 z"
                 id="DejaVuSans-70"
                 transform="scale(0.015625)" />
              <path
                 d="m 1959,3097 q -462,0 -731,-361 -269,-361 -269,-989 0,-628 267,-989 268,-361 733,-361 460,0 728,362 269,363 269,988 0,622 -269,986 -268,364 -728,364 z m 0,487 q 750,0 1178,-488 429,-487 429,-1349 Q 3566,888 3137,398 2709,-91 1959,-91 1206,-91 779,398 353,888 353,1747 q 0,862 426,1349 427,488 1180,488 z"
                 id="DejaVuSans-6f"
                 transform="scale(0.015625)" />
              <path
                 d="m 269,3500 h 575 l 719,-2731 715,2731 h 678 l 719,-2731 716,2731 h 575 L 4050,0 H 3372 L 2619,2869 1863,0 h -679 z"
                 id="DejaVuSans-77"
                 transform="scale(0.015625)" />
              <path
                 d="M 3597,1894 V 1613 H 953 q 38,-594 358,-905 320,-311 892,-311 331,0 642,81 311,81 618,244 V 178 Q 3153,47 2828,-22 2503,-91 2169,-91 1331,-91 842,396 353,884 353,1716 q 0,859 464,1363 464,505 1252,505 706,0 1117,-455 411,-454 411,-1235 z m -575,169 q -6,471 -264,752 -258,282 -683,282 -481,0 -770,-272 -289,-272 -333,-766 z"
                 id="DejaVuSans-65"
                 transform="scale(0.015625)" />
              <path
                 d="m 2631,2963 q -97,56 -211,82 -114,27 -251,27 -488,0 -749,-317 -261,-317 -261,-911 V 0 H 581 v 3500 h 578 v -544 q 182,319 472,473 291,155 707,155 59,0 131,-8 72,-7 159,-23 z"
                 id="DejaVuSans-72"
                 transform="scale(0.015625)" />
              <path
                 d="m 2375,4863 v -479 h -550 q -309,0 -430,-125 -120,-125 -120,-450 v -309 h 947 V 3053 H 1275 V 0 H 697 V 3053 H 147 v 447 h 550 v 244 q 0,584 272,851 272,268 862,268 z"
                 id="DejaVuSans-66"
                 transform="scale(0.015625)" />
            </defs>
            <use
               xlink:href="#DejaVuSans-6e"
               id="use174"
               x="0"
               y="0"
               width="100%"
               height="100%" />
            <use
               x="63.378906"
               xlink:href="#DejaVuSans-3a"
               id="use176"
               y="0"
               width="100%"
               height="100%" />
            <use
               x="97.070312"
               xlink:href="#DejaVuSans-20"
               id="use178"
               y="0"
               width="100%"
               height="100%" />
            <use
               x="128.85742"
               xlink:href="#DejaVuSans-70"
               id="use180"
               y="0"
               width="100%"
               height="100%" />
            <use
               x="192.33398"
               xlink:href="#DejaVuSans-6f"
               id="use182"
               y="0"
               width="100%"
               height="100%" />
            <use
               x="253.51562"
               xlink:href="#DejaVuSans-77"
               id="use184"
               y="0"
               width="100%"
               height="100%" />
            <use
               x="335.30273"
               xlink:href="#DejaVuSans-65"
               id="use186"
               y="0"
               width="100%"
               height="100%" />
            <use
               x="396.82617"
               xlink:href="#DejaVuSans-72"
               id="use188"
               y="0"
               width="100%"
               height="100%" />
            <use
               x="437.93945"
               xlink:href="#DejaVuSans-20"
               id="use190"
               y="0"
               width="100%"
               height="100%" />
            <use
               x="469.72656"
               xlink:href="#DejaVuSans-6f"
               id="use192"
               y="0"
               width="100%"
               height="100%" />
            <use
               x="530.9082"
               xlink:href="#DejaVuSans-66"
               id="use194"
               y="0"
               width="100%"
               height="100%" />
            <use
               x="566.11328"
               xlink:href="#DejaVuSans-20"
               id="use196"
               y="0"
               width="100%"
               height="100%" />
            <use
               x="597.90039"
               xlink:href="#DejaVuSans-32"
               id="use198"
               y="0"
               width="100%"
               height="100%" />
          </g>
        </g>
      </g>
      <g
         id="matplotlib.axis_2">
        <g
           id="ytick_1">
          <g
             id="line2d_17">
            <path
               clip-path="url(#p58947f765a)"
               d="M 57.6,259.87 H 414.72"
               style="fill:none;stroke:#93a1a1;stroke-width:0.7;stroke-dasharray:4.48, 1.12, 0.7, 1.12;stroke-dashoffset:0"
               id="path204" />
          </g>
          <g
             id="line2d_18">
            <defs
               id="defs208">
              <path
                 d="M 0,0 H -3.5"
                 id="mc935b77b15"
                 style="stroke:#657b83;stroke-width:0.8" />
            </defs>
            <g
               id="g212">
              <use
                 style="fill:#657b83;stroke:#657b83;stroke-width:0.8"
                 x="57.599998"
                 xlink:href="#mc935b77b15"
                 y="259.87"
                 id="use210"
                 width="100%"
                 height="100%" />
            </g>
          </g>
          <g
             id="text_10">
            <!-- −10 -->
            <g
               style="fill:#657b83"
               transform="matrix(0.1,0,0,-0.1,29.495313,263.66921)"
               id="g224">
              <defs
                 id="defs216">
                <path
                   d="M 678,2272 H 4684 V 1741 H 678 Z"
                   id="DejaVuSans-2212"
                   transform="scale(0.015625)" />
              </defs>
              <use
                 xlink:href="#DejaVuSans-2212"
                 id="use218"
                 x="0"
                 y="0"
                 width="100%"
                 height="100%" />
              <use
                 x="83.789062"
                 xlink:href="#DejaVuSans-31"
                 id="use220"
                 y="0"
                 width="100%"
                 height="100%" />
              <use
                 x="147.41211"
                 xlink:href="#DejaVuSans-30"
                 id="use222"
                 y="0"
                 width="100%"
                 height="100%" />
            </g>
          </g>
        </g>
        <g
           id="ytick_2">
          <g
             id="line2d_19">
            <path
               clip-path="url(#p58947f765a)"
               d="M 57.6,208.00837 H 414.72"
               style="fill:none;stroke:#93a1a1;stroke-width:0.7;stroke-dasharray:4.48, 1.12, 0.7, 1.12;stroke-dashoffset:0"
               id="path228" />
          </g>
          <g
             id="line2d_20">
            <g
               id="g233">
              <use
                 style="fill:#657b83;stroke:#657b83;stroke-width:0.8"
                 x="57.599998"
                 xlink:href="#mc935b77b15"
                 y="208.00836"
                 id="use231"
                 width="100%"
                 height="100%" />
            </g>
          </g>
          <g
             id="text_11">
            <!-- −5 -->
            <g
               style="fill:#657b83"
               transform="matrix(0.1,0,0,-0.1,35.857813,211.80759)"
               id="g240">
              <use
                 xlink:href="#DejaVuSans-2212"
                 id="use236"
                 x="0"
                 y="0"
                 width="100%"
                 height="100%" />
              <use
                 x="83.789062"
                 xlink:href="#DejaVuSans-35"
                 id="use238"
                 y="0"
                 width="100%"
                 height="100%" />
            </g>
          </g>
        </g>
        <g
           id="ytick_3">
          <g
             id="line2d_21">
            <path
               clip-path="url(#p58947f765a)"
               d="M 57.6,156.14674 H 414.72"
               style="fill:none;stroke:#93a1a1;stroke-width:0.7;stroke-dasharray:4.48, 1.12, 0.7, 1.12;stroke-dashoffset:0"
               id="path244" />
          </g>
          <g
             id="line2d_22">
            <g
               id="g249">
              <use
                 style="fill:#657b83;stroke:#657b83;stroke-width:0.8"
                 x="57.599998"
                 xlink:href="#mc935b77b15"
                 y="156.14674"
                 id="use247"
                 width="100%"
                 height="100%" />
            </g>
          </g>
          <g
             id="text_12">
            <!-- 0 -->
            <g
               style="fill:#657b83"
               transform="matrix(0.1,0,0,-0.1,44.2375,159.94596)"
               id="g254">
              <use
                 xlink:href="#DejaVuSans-30"
                 id="use252"
                 x="0"
                 y="0"
                 width="100%"
                 height="100%" />
            </g>
          </g>
        </g>
        <g
           id="ytick_4">
          <g
             id="line2d_23">
            <path
               clip-path="url(#p58947f765a)"
               d="M 57.6,104.28511 H 414.72"
               style="fill:none;stroke:#93a1a1;stroke-width:0.7;stroke-dasharray:4.48, 1.12, 0.7, 1.12;stroke-dashoffset:0"
               id="path258" />
          </g>
          <g
             id="line2d_24">
            <g
               id="g263">
              <use
                 style="fill:#657b83;stroke:#657b83;stroke-width:0.8"
                 x="57.599998"
                 xlink:href="#mc935b77b15"
                 y="104.28511"
                 id="use261"
                 width="100%"
                 height="100%" />
            </g>
          </g>
          <g
             id="text_13">
            <!-- 5 -->
            <g
               style="fill:#657b83"
               transform="matrix(0.1,0,0,-0.1,44.2375,108.08433)"
               id="g268">
              <use
                 xlink:href="#DejaVuSans-35"
                 id="use266"
                 x="0"
                 y="0"
                 width="100%"
                 height="100%" />
            </g>
          </g>
        </g>
        <g
           id="ytick_5">
          <g
             id="line2d_25">
            <path
               clip-path="url(#p58947f765a)"
               d="M 57.6,52.423486 H 414.72"
               style="fill:none;stroke:#93a1a1;stroke-width:0.7;stroke-dasharray:4.48, 1.12, 0.7, 1.12;stroke-dashoffset:0"
               id="path272" />
          </g>
          <g
             id="line2d_26">
            <g
               id="g277">
              <use
                 style="fill:#657b83;stroke:#657b83;stroke-width:0.8"
                 x="57.599998"
                 xlink:href="#mc935b77b15"
                 y="52.423485"
                 id="use275"
                 width="100%"
                 height="100%" />
            </g>
          </g>
          <g
             id="text_14">
            <!-- 10 -->
            <g
               style="fill:#657b83"
               transform="matrix(0.1,0,0,-0.1,37.875,56.222704)"
               id="g284">
              <use
                 xlink:href="#DejaVuSans-31"
                 id="use280"
                 x="0"
                 y="0"
                 width="100%"
                 height="100%" />
              <use
                 x="63.623047"
                 xlink:href="#DejaVuSans-30"
                 id="use282"
                 y="0"
                 width="100%"
                 height="100%" />
            </g>
          </g>
        </g>
        <g
           id="text_15">
          <!-- time -->
          <g
             style="fill:#657b83"
             transform="matrix(0,-0.12,-0.12,0,22.999688,188.08331)"
             id="g301">
            <defs
               id="defs291">
              <path
                 d="M 1172,4494 V 3500 H 2356 V 3053 H 1172 V 1153 q 0,-428 117,-550 117,-122 477,-122 h 590 V 0 H 1766 Q 1100,0 847,248 594,497 594,1153 V 3053 H 172 v 447 h 422 v 994 z"
                 id="DejaVuSans-74"
                 transform="scale(0.015625)" />
              <path
                 d="m 603,3500 h 575 V 0 H 603 Z m 0,1363 h 575 V 4134 H 603 Z"
                 id="DejaVuSans-69"
                 transform="scale(0.015625)" />
              <path
                 d="m 3328,2828 q 216,388 516,572 300,184 706,184 547,0 844,-383 297,-382 297,-1088 V 0 h -578 v 2094 q 0,503 -179,746 -178,244 -543,244 -447,0 -707,-297 -259,-296 -259,-809 V 0 h -578 v 2094 q 0,506 -178,748 -178,242 -550,242 -441,0 -701,-298 -259,-298 -259,-808 V 0 H 581 v 3500 h 578 v -544 q 197,322 472,475 275,153 653,153 382,0 649,-194 267,-193 395,-562 z"
                 id="DejaVuSans-6d"
                 transform="scale(0.015625)" />
            </defs>
            <use
               xlink:href="#DejaVuSans-74"
               id="use293"
               x="0"
               y="0"
               width="100%"
               height="100%" />
            <use
               x="39.208984"
               xlink:href="#DejaVuSans-69"
               id="use295"
               y="0"
               width="100%"
               height="100%" />
            <use
               x="66.992188"
               xlink:href="#DejaVuSans-6d"
               id="use297"
               y="0"
               width="100%"
               height="100%" />
            <use
               x="164.4043"
               xlink:href="#DejaVuSans-65"
               id="use299"
               y="0"
               width="100%"
               height="100%" />
          </g>
        </g>
      </g>
      <g
         id="line2d_27">
        <path
           clip-path="url(#p58947f765a)"
           d="m 73.832727,200.62854 46.379223,-21.39279 46.37922,-21.13154 46.37922,-21.18239 46.37922,-21.01794 L 305.72883,92.950889 352.10805,72.277861 398.48727,53.568"
           style="fill:none;stroke:#268bd2;stroke-width:2"
           id="path305" />
      </g>
      <g
         id="line2d_28">
        <path
           clip-path="url(#p58947f765a)"
           d="M 73.832727,201.90742 120.21195,181.42013 166.59117,160.74049 212.97039,140.71 259.34961,119.46603 305.72883,95.319242 352.10805,76.815985 398.48727,57.524444"
           style="fill:none;stroke:#2aa198;stroke-width:2"
           id="path308" />
      </g>
      <g
         id="line2d_29">
        <path
           clip-path="url(#p58947f765a)"
           d="m 73.832727,295.488 46.379223,-15.72543 46.37922,-6.17745 46.37922,-11.15107 46.37922,-11.37842 46.37922,-15.74336 46.37922,-5.36575 46.37922,-10.3911"
           style="fill:none;stroke:#859900;stroke-width:2"
           id="path311" />
      </g>
      <g
         id="patch_3">
        <path
           d="M 57.6,307.584 V 41.472"
           style="fill:none;stroke:#eee8d5;stroke-width:0.8;stroke-linecap:square;stroke-linejoin:miter"
           id="path314" />
      </g>
      <g
         id="patch_4">
        <path
           d="M 414.72,307.584 V 41.472"
           style="fill:none;stroke:#eee8d5;stroke-width:0.8;stroke-linecap:square;stroke-linejoin:miter"
           id="path317" />
      </g>
      <g
         id="patch_5">
        <path
           d="M 57.6,307.584 H 414.72"
           style="fill:none;stroke:#eee8d5;stroke-width:0.8;stroke-linecap:square;stroke-linejoin:miter"
           id="path320" />
      </g>
      <g
         id="patch_6">
        <path
           d="M 57.6,41.472 H 414.72"
           style="fill:none;stroke:#eee8d5;stroke-width:0.8;stroke-linecap:square;stroke-linejoin:miter"
           id="path323" />
      </g>
      <g
         id="legend_1">
        <g
           id="patch_7">
          <path
             d="m 64.6,93.506375 h 97.23281 q 2,0 2,-2 V 48.472 q 0,-2 -2,-2 H 64.6 q -2,0 -2,2 v 43.034375 q 0,2 2,2 z"
             style="opacity:0.8;fill:#eee8d5;stroke:#cccccc;stroke-linejoin:miter"
             id="path326" />
        </g>
        <g
           id="line2d_30">
          <path
             d="m 66.6,54.570438 h 20"
             style="fill:none;stroke:#268bd2;stroke-width:2"
             id="path329" />
        </g>
        <g
           id="line2d_31" />
        <g
           id="text_16">
          <!-- LCS &amp; DP -->
          <g
             transform="matrix(0.1,0,0,-0.1,94.6,58.070438)"
             id="g357">
            <defs
               id="defs339">
              <path
                 d="m 628,4666 h 631 V 531 H 3531 V 0 H 628 Z"
                 id="DejaVuSans-4c"
                 transform="scale(0.015625)" />
              <path
                 d="m 4122,4306 v -665 q -319,297 -680,443 -361,147 -767,147 -800,0 -1225,-489 -425,-489 -425,-1414 0,-922 425,-1411 425,-489 1225,-489 406,0 767,147 361,147 680,444 V 359 Q 3791,134 3420,21 3050,-91 2638,-91 1578,-91 968,557 359,1206 359,2328 q 0,1125 609,1773 610,649 1670,649 418,0 788,-111 371,-111 696,-333 z"
                 id="DejaVuSans-43"
                 transform="scale(0.015625)" />
              <path
                 d="m 3425,4513 v -616 q -359,172 -678,256 -319,85 -616,85 -515,0 -795,-200 -280,-200 -280,-569 0,-310 186,-468 186,-157 705,-254 l 381,-78 q 706,-135 1042,-474 336,-339 336,-907 0,-679 -455,-1029 -454,-350 -1332,-350 -331,0 -705,75 -373,75 -773,222 v 650 q 384,-215 753,-325 369,-109 725,-109 540,0 834,212 294,213 294,607 0,343 -211,537 -211,194 -692,291 l -385,75 q -706,140 -1022,440 -315,300 -315,835 0,619 436,975 436,356 1201,356 329,0 669,-60 341,-59 697,-177 z"
                 id="DejaVuSans-53"
                 transform="scale(0.015625)" />
              <path
                 d="m 1556,2509 q -284,-253 -417,-505 -133,-251 -133,-526 0,-456 331,-759 332,-303 832,-303 297,0 556,98 259,99 488,299 z m 441,350 1587,-1625 q 185,279 288,596 103,317 122,673 h 581 Q 4538,2091 4375,1687 4213,1284 3922,891 L 4794,0 H 4006 L 3559,459 Q 3234,181 2878,45 2522,-91 2113,-91 1359,-91 881,339 403,769 403,1441 q 0,400 209,751 210,352 629,661 -150,197 -229,392 -78,196 -78,383 0,506 347,814 347,308 922,308 260,0 517,-56 258,-56 524,-169 v -569 q -272,147 -519,223 -247,77 -459,77 -328,0 -533,-174 -205,-173 -205,-448 0,-159 92,-320 93,-161 377,-455 z"
                 id="DejaVuSans-26"
                 transform="scale(0.015625)" />
              <path
                 d="M 1259,4147 V 519 h 763 q 966,0 1414,437 448,438 448,1382 0,937 -448,1373 -448,436 -1414,436 z m -631,519 h 1297 q 1356,0 1990,-564 635,-564 635,-1764 Q 4550,1131 3912,565 3275,0 1925,0 H 628 Z"
                 id="DejaVuSans-44"
                 transform="scale(0.015625)" />
              <path
                 d="M 1259,4147 V 2394 h 794 q 441,0 681,228 241,228 241,650 0,419 -241,647 -240,228 -681,228 z m -631,519 h 1425 q 785,0 1186,-355 402,-355 402,-1039 0,-691 -402,-1044 -401,-353 -1186,-353 H 1259 V 0 H 628 Z"
                 id="DejaVuSans-50"
                 transform="scale(0.015625)" />
            </defs>
            <use
               xlink:href="#DejaVuSans-4c"
               id="use341"
               x="0"
               y="0"
               width="100%"
               height="100%" />
            <use
               x="55.712891"
               xlink:href="#DejaVuSans-43"
               id="use343"
               y="0"
               width="100%"
               height="100%" />
            <use
               x="125.53711"
               xlink:href="#DejaVuSans-53"
               id="use345"
               y="0"
               width="100%"
               height="100%" />
            <use
               x="189.01367"
               xlink:href="#DejaVuSans-20"
               id="use347"
               y="0"
               width="100%"
               height="100%" />
            <use
               x="220.80078"
               xlink:href="#DejaVuSans-26"
               id="use349"
               y="0"
               width="100%"
               height="100%" />
            <use
               x="298.7793"
               xlink:href="#DejaVuSans-20"
               id="use351"
               y="0"
               width="100%"
               height="100%" />
            <use
               x="330.56641"
               xlink:href="#DejaVuSans-44"
               id="use353"
               y="0"
               width="100%"
               height="100%" />
            <use
               x="407.56836"
               xlink:href="#DejaVuSans-50"
               id="use355"
               y="0"
               width="100%"
               height="100%" />
          </g>
        </g>
        <g
           id="line2d_32">
          <path
             d="m 66.6,69.248563 h 20"
             style="fill:none;stroke:#2aa198;stroke-width:2"
             id="path360" />
        </g>
        <g
           id="line2d_33" />
        <g
           id="text_17">
          <!-- LIS &amp; DP -->
          <g
             transform="matrix(0.1,0,0,-0.1,94.6,72.748563)"
             id="g383">
            <defs
               id="defs365">
              <path
                 d="m 628,4666 h 631 V 0 H 628 Z"
                 id="DejaVuSans-49"
                 transform="scale(0.015625)" />
            </defs>
            <use
               xlink:href="#DejaVuSans-4c"
               id="use367"
               x="0"
               y="0"
               width="100%"
               height="100%" />
            <use
               x="55.712891"
               xlink:href="#DejaVuSans-49"
               id="use369"
               y="0"
               width="100%"
               height="100%" />
            <use
               x="85.205078"
               xlink:href="#DejaVuSans-53"
               id="use371"
               y="0"
               width="100%"
               height="100%" />
            <use
               x="148.68164"
               xlink:href="#DejaVuSans-20"
               id="use373"
               y="0"
               width="100%"
               height="100%" />
            <use
               x="180.46875"
               xlink:href="#DejaVuSans-26"
               id="use375"
               y="0"
               width="100%"
               height="100%" />
            <use
               x="258.44727"
               xlink:href="#DejaVuSans-20"
               id="use377"
               y="0"
               width="100%"
               height="100%" />
            <use
               x="290.23438"
               xlink:href="#DejaVuSans-44"
               id="use379"
               y="0"
               width="100%"
               height="100%" />
            <use
               x="367.23633"
               xlink:href="#DejaVuSans-50"
               id="use381"
               y="0"
               width="100%"
               height="100%" />
          </g>
        </g>
        <g
           id="line2d_34">
          <path
             d="m 66.6,83.926688 h 20"
             style="fill:none;stroke:#859900;stroke-width:2"
             id="path386" />
        </g>
        <g
           id="line2d_35" />
        <g
           id="text_18">
          <!-- LIS &amp; Greedy -->
          <g
             transform="matrix(0.1,0,0,-0.1,94.6,87.426688)"
             id="g419">
            <defs
               id="defs393">
              <path
                 d="M 3809,666 V 1919 H 2778 v 519 H 4434 V 434 Q 4069,175 3628,42 3188,-91 2688,-91 1594,-91 976,548 359,1188 359,2328 q 0,1144 617,1783 618,639 1712,639 456,0 867,-113 411,-112 758,-331 v -672 q -350,297 -744,447 -394,150 -828,150 -857,0 -1287,-478 -429,-478 -429,-1425 0,-944 429,-1422 430,-478 1287,-478 334,0 596,58 263,58 472,180 z"
                 id="DejaVuSans-47"
                 transform="scale(0.015625)" />
              <path
                 d="m 2906,2969 v 1894 h 575 V 0 H 2906 V 525 Q 2725,213 2448,61 2172,-91 1784,-91 1150,-91 751,415 353,922 353,1747 q 0,825 398,1331 399,506 1033,506 388,0 664,-152 277,-151 458,-463 z M 947,1747 q 0,-634 261,-995 261,-361 717,-361 456,0 718,361 263,361 263,995 0,634 -263,995 -262,361 -718,361 -456,0 -717,-361 -261,-361 -261,-995 z"
                 id="DejaVuSans-64"
                 transform="scale(0.015625)" />
              <path
                 d="m 2059,-325 q -243,-625 -475,-815 -231,-191 -618,-191 H 506 v 481 h 338 q 237,0 368,113 132,112 291,531 L 1606,56 191,3500 H 800 L 1894,763 2988,3500 h 609 z"
                 id="DejaVuSans-79"
                 transform="scale(0.015625)" />
            </defs>
            <use
               xlink:href="#DejaVuSans-4c"
               id="use395"
               x="0"
               y="0"
               width="100%"
               height="100%" />
            <use
               x="55.712891"
               xlink:href="#DejaVuSans-49"
               id="use397"
               y="0"
               width="100%"
               height="100%" />
            <use
               x="85.205078"
               xlink:href="#DejaVuSans-53"
               id="use399"
               y="0"
               width="100%"
               height="100%" />
            <use
               x="148.68164"
               xlink:href="#DejaVuSans-20"
               id="use401"
               y="0"
               width="100%"
               height="100%" />
            <use
               x="180.46875"
               xlink:href="#DejaVuSans-26"
               id="use403"
               y="0"
               width="100%"
               height="100%" />
            <use
               x="258.44727"
               xlink:href="#DejaVuSans-20"
               id="use405"
               y="0"
               width="100%"
               height="100%" />
            <use
               x="290.23438"
               xlink:href="#DejaVuSans-47"
               id="use407"
               y="0"
               width="100%"
               height="100%" />
            <use
               x="367.72461"
               xlink:href="#DejaVuSans-72"
               id="use409"
               y="0"
               width="100%"
               height="100%" />
            <use
               x="406.58789"
               xlink:href="#DejaVuSans-65"
               id="use411"
               y="0"
               width="100%"
               height="100%" />
            <use
               x="468.11133"
               xlink:href="#DejaVuSans-65"
               id="use413"
               y="0"
               width="100%"
               height="100%" />
            <use
               x="529.63477"
               xlink:href="#DejaVuSans-64"
               id="use415"
               y="0"
               width="100%"
               height="100%" />
            <use
               x="593.11133"
               xlink:href="#DejaVuSans-79"
               id="use417"
               y="0"
               width="100%"
               height="100%" />
          </g>
        </g>
      </g>
    </g>
  </g>
  <defs
     id="defs428">
    <clipPath
       id="p58947f765a">
      <rect
         height="266.112"
         width="357.12"
         x="57.599998"
         y="41.472"
         id="rect425" />
    </clipPath>
  </defs>
</svg>
