<?xml version="1.0" encoding="UTF-8" standalone="no"?>
<svg
   xmlns:dc="http://purl.org/dc/elements/1.1/"
   xmlns:cc="http://creativecommons.org/ns#"
   xmlns:rdf="http://www.w3.org/1999/02/22-rdf-syntax-ns#"
   xmlns:svg="http://www.w3.org/2000/svg"
   xmlns="http://www.w3.org/2000/svg"
   xmlns:sodipodi="http://sodipodi.sourceforge.net/DTD/sodipodi-0.dtd"
   xmlns:inkscape="http://www.inkscape.org/namespaces/inkscape"
   width="196.78928pt"
   height="120.25021pt"
   viewBox="0 0 196.78928 120.25021"
   version="1.2"
   id="svg33"
   sodipodi:docname="active3.svg"
   inkscape:version="0.92.4 5da689c313, 2019-01-14">
  <metadata
     id="metadata39">
    <rdf:RDF>
      <cc:Work
         rdf:about="">
        <dc:format>image/svg+xml</dc:format>
        <dc:type
           rdf:resource="http://purl.org/dc/dcmitype/StillImage" />
        <dc:title></dc:title>
      </cc:Work>
    </rdf:RDF>
  </metadata>
  <defs
     id="defs37" />
  <sodipodi:namedview
     pagecolor="#ffffff"
     bordercolor="#666666"
     borderopacity="1"
     objecttolerance="10"
     gridtolerance="10"
     guidetolerance="10"
     inkscape:pageopacity="0"
     inkscape:pageshadow="2"
     inkscape:window-width="1280"
     inkscape:window-height="1560"
     id="namedview35"
     showgrid="false"
     inkscape:zoom="2.5284424"
     inkscape:cx="147.64828"
     inkscape:cy="-24.612057"
     inkscape:window-x="0"
     inkscape:window-y="40"
     inkscape:window-maximized="0"
     inkscape:current-layer="svg33" />
  <g
     id="surface176"
     transform="translate(-207.60536,-181.2538)">
    <path
       style="fill:none;stroke:#ff0000;stroke-width:1.19553006;stroke-linecap:butt;stroke-linejoin:miter;stroke-miterlimit:10;stroke-opacity:1"
       d="m -96.380906,28.34775 c 0,1.566406 -1.265625,2.832031 -2.832032,2.832031 -1.566402,0 -2.835932,-1.265625 -2.835932,-2.832031 0,-1.566406 1.26953,-2.835938 2.835932,-2.835938 1.566407,0 2.832032,1.269532 2.832032,2.835938 z m 0,0"
       transform="matrix(1,0,0,-1,310.252,241.379)"
       id="path2"
       inkscape:connector-curvature="0" />
    <path
       style="fill:none;stroke:#000000;stroke-width:1.19553006;stroke-linecap:butt;stroke-linejoin:miter;stroke-miterlimit:10;stroke-opacity:1"
       d="m -68.03325,56.695406 c 0,1.5625 -1.269531,2.832031 -2.832031,2.832031 -1.566407,0 -2.835938,-1.269531 -2.835938,-2.832031 0,-1.566406 1.269531,-2.835937 2.835938,-2.835937 1.5625,0 2.832031,1.269531 2.832031,2.835937 z m 0,0"
       transform="matrix(1,0,0,-1,310.252,241.379)"
       id="path4"
       inkscape:connector-curvature="0" />
    <path
       style="fill:none;stroke:#000000;stroke-width:1.19553006;stroke-linecap:butt;stroke-linejoin:miter;stroke-miterlimit:10;stroke-opacity:1"
       d="m -53.857469,34.015719 c 0,1.566406 -1.269531,2.835937 -2.835937,2.835937 -1.566407,0 -2.835938,-1.269531 -2.835938,-2.835937 0,-1.566407 1.269531,-2.835938 2.835938,-2.835938 1.566406,0 2.835937,1.269531 2.835937,2.835938 z m 0,0"
       transform="matrix(1,0,0,-1,310.252,241.379)"
       id="path6"
       inkscape:connector-curvature="0" />
    <path
       style="fill:none;stroke:#000000;stroke-width:1.19553006;stroke-linecap:butt;stroke-linejoin:miter;stroke-miterlimit:10;stroke-opacity:1"
       d="m -62.361375,-8.503813 c 0,1.566407 -1.269531,2.835938 -2.835938,2.835938 -1.566406,0 -2.835937,-1.269531 -2.835937,-2.835938 0,-1.566406 1.269531,-2.835937 2.835937,-2.835937 1.566407,0 2.835938,1.269531 2.835938,2.835937 z m 0,0"
       transform="matrix(1,0,0,-1,310.252,241.379)"
       id="path8"
       inkscape:connector-curvature="0" />
    <path
       style="fill:none;stroke:#000000;stroke-width:1.19553006;stroke-linecap:butt;stroke-linejoin:miter;stroke-miterlimit:10;stroke-opacity:1"
       d="m -68.03325,-56.695219 c 0,1.566406 -1.269531,2.835938 -2.832031,2.835938 -1.566407,0 -2.835938,-1.269532 -2.835938,-2.835938 0,-1.5625 1.269531,-2.832031 2.835938,-2.832031 1.5625,0 2.832031,1.269531 2.832031,2.832031 z m 0,0"
       transform="matrix(1,0,0,-1,310.252,241.379)"
       id="path10"
       inkscape:connector-curvature="0" />
    <path
       style="fill:none;stroke:#000000;stroke-width:1.19553006;stroke-linecap:butt;stroke-linejoin:miter;stroke-miterlimit:10;stroke-opacity:1"
       d="m -53.857469,-28.347563 c 0,1.566407 -1.269531,2.835938 -2.835937,2.835938 -1.566407,0 -2.835938,-1.269531 -2.835938,-2.835938 0,-1.566406 1.269531,-2.835937 2.835938,-2.835937 1.566406,0 2.835937,1.269531 2.835937,2.835937 z m 0,0"
       transform="matrix(1,0,0,-1,310.252,241.379)"
       id="path12"
       inkscape:connector-curvature="0" />
    <path
       style="fill:none;stroke:#ff0000;stroke-width:1.19553006;stroke-linecap:butt;stroke-linejoin:miter;stroke-miterlimit:10;stroke-opacity:1"
       d="m -25.513719,-14.171781 c 0,1.5625 -1.265625,2.832031 -2.832031,2.832031 -1.566406,0 -2.835938,-1.269531 -2.835938,-2.832031 0,-1.566407 1.269532,-2.835938 2.835938,-2.835938 1.566406,0 2.832031,1.269531 2.832031,2.835938 z m 0,0"
       transform="matrix(1,0,0,-1,310.252,241.379)"
       id="path14"
       inkscape:connector-curvature="0" />
    <path
       style="fill:none;stroke:#000000;stroke-width:1.19553006;stroke-linecap:butt;stroke-linejoin:miter;stroke-miterlimit:10;stroke-opacity:1"
       d="m 76.537062,42.519625 c 0,1.566406 -1.269531,2.835937 -2.835937,2.835937 -1.566406,0 -2.835938,-1.269531 -2.835938,-2.835937 0,-1.566406 1.269532,-2.835938 2.835938,-2.835938 1.566406,0 2.835937,1.269532 2.835937,2.835938 z m 0,0"
       transform="matrix(1,0,0,-1,310.252,241.379)"
       id="path16"
       inkscape:connector-curvature="0" />
    <path
       style="fill:none;stroke:#000000;stroke-width:1.19553006;stroke-linecap:butt;stroke-linejoin:miter;stroke-miterlimit:10;stroke-opacity:1"
       d="m 93.544875,22.675875 c 0,1.566406 -1.269531,2.835937 -2.835938,2.835937 -1.566406,0 -2.835937,-1.269531 -2.835937,-2.835937 0,-1.5625 1.269531,-2.832031 2.835937,-2.832031 1.566407,0 2.835938,1.269531 2.835938,2.832031 z m 0,0"
       transform="matrix(1,0,0,-1,310.252,241.379)"
       id="path18"
       inkscape:connector-curvature="0" />
    <path
       style="fill:none;stroke:#0000ff;stroke-width:1.19553006;stroke-linecap:butt;stroke-linejoin:miter;stroke-miterlimit:10;stroke-opacity:1"
       d="m 31.181594,14.171969 c 0,1.566406 -1.269532,2.835937 -2.835938,2.835937 -1.566406,0 -2.832031,-1.269531 -2.832031,-2.835937 0,-1.5625 1.265625,-2.832032 2.832031,-2.832032 1.566406,0 2.835938,1.269532 2.835938,2.832032 z m 0,0"
       transform="matrix(1,0,0,-1,310.252,241.379)"
       id="path20"
       inkscape:connector-curvature="0" />
    <path
       style="fill:none;stroke:#000000;stroke-width:1.19553006;stroke-linecap:butt;stroke-linejoin:miter;stroke-miterlimit:10;stroke-opacity:1"
       d="m 59.52925,9.375e-5 c 0,1.56640625 -1.269531,2.83593725 -2.835938,2.83593725 -1.566406,0 -2.835937,-1.269531 -2.835937,-2.83593725 0,-1.56640675 1.269531,-2.83593775 2.835937,-2.83593775 1.566407,0 2.835938,1.269531 2.835938,2.83593775 z m 0,0"
       transform="matrix(1,0,0,-1,310.252,241.379)"
       id="path22"
       inkscape:connector-curvature="0" />
    <path
       style="fill:none;stroke:#000000;stroke-width:1.19553006;stroke-linecap:butt;stroke-linejoin:miter;stroke-miterlimit:10;stroke-opacity:1"
       d="m 73.701125,-5.667875 c 0,1.5625 -1.269531,2.832031 -2.835938,2.832031 -1.5625,0 -2.832031,-1.269531 -2.832031,-2.832031 0,-1.566406 1.269531,-2.835938 2.832031,-2.835938 1.566407,0 2.835938,1.269532 2.835938,2.835938 z m 0,0"
       transform="matrix(1,0,0,-1,310.252,241.379)"
       id="path24"
       inkscape:connector-curvature="0" />
    <path
       style="fill:none;stroke:#000000;stroke-width:1.19553006;stroke-linecap:butt;stroke-linejoin:miter;stroke-miterlimit:10;stroke-opacity:1"
       d="m 85.040969,-42.519438 c 0,1.566407 -1.269532,2.835938 -2.835938,2.835938 -1.566406,0 -2.835937,-1.269531 -2.835937,-2.835938 0,-1.566406 1.269531,-2.835937 2.835937,-2.835937 1.566406,0 2.835938,1.269531 2.835938,2.835937 z m 0,0"
       transform="matrix(1,0,0,-1,310.252,241.379)"
       id="path26"
       inkscape:connector-curvature="0" />
    <path
       style="fill:none;stroke:#0000ff;stroke-width:1.19553006;stroke-linecap:butt;stroke-linejoin:miter;stroke-miterlimit:10;stroke-opacity:1"
       d="m 70.865187,-56.695219 c 0,1.566406 -1.265625,2.835938 -2.832031,2.835938 -1.566406,0 -2.835937,-1.269532 -2.835937,-2.835938 0,-1.5625 1.269531,-2.832031 2.835937,-2.832031 1.566406,0 2.832031,1.269531 2.832031,2.832031 z m 0,0"
       transform="matrix(1,0,0,-1,310.252,241.379)"
       id="path28"
       inkscape:connector-curvature="0" />
    <path
       style="fill:none;stroke:#000000;stroke-width:0.3985;stroke-linecap:butt;stroke-linejoin:miter;stroke-miterlimit:10;stroke-dasharray:2.98883, 2.98883;stroke-opacity:1"
       d="M -34.017625,56.695406 29.763625,-56.695219"
       transform="matrix(1,0,0,-1,310.252,241.379)"
       id="path30"
       inkscape:connector-curvature="0" />
  </g>
</svg>
